<mxfile host="Electron" agent="Mozilla/5.0 (Windows NT 10.0; Win64; x64) AppleWebKit/537.36 (KHTML, like Gecko) draw.io/28.0.6 Chrome/138.0.7204.100 Electron/37.2.3 Safari/537.36" version="28.0.6">
  <diagram id="C5RBs43oDa-KdzZeNtuy" name="Page-1">
    <mxGraphModel dx="1699" dy="537" grid="1" gridSize="10" guides="1" tooltips="1" connect="1" arrows="1" fold="1" page="1" pageScale="1" pageWidth="827" pageHeight="1169" math="0" shadow="0">
      <root>
        <mxCell id="WIyWlLk6GJQsqaUBKTNV-0" />
        <mxCell id="WIyWlLk6GJQsqaUBKTNV-1" parent="WIyWlLk6GJQsqaUBKTNV-0" />
        <mxCell id="d6ZLpvaJAmN4t9_mhqn5-18" style="edgeStyle=orthogonalEdgeStyle;rounded=0;orthogonalLoop=1;jettySize=auto;html=1;entryX=0.5;entryY=0;entryDx=0;entryDy=0;" edge="1" parent="WIyWlLk6GJQsqaUBKTNV-1" source="d6ZLpvaJAmN4t9_mhqn5-0" target="d6ZLpvaJAmN4t9_mhqn5-4">
          <mxGeometry relative="1" as="geometry" />
        </mxCell>
        <mxCell id="d6ZLpvaJAmN4t9_mhqn5-51" value="Use" style="edgeLabel;html=1;align=center;verticalAlign=middle;resizable=0;points=[];" vertex="1" connectable="0" parent="d6ZLpvaJAmN4t9_mhqn5-18">
          <mxGeometry x="-0.1" relative="1" as="geometry">
            <mxPoint as="offset" />
          </mxGeometry>
        </mxCell>
        <mxCell id="d6ZLpvaJAmN4t9_mhqn5-0" value="RefatoracaoDoSistemaDeSensoresApplication" style="swimlane;fontStyle=1;align=center;verticalAlign=top;childLayout=stackLayout;horizontal=1;startSize=26;horizontalStack=0;resizeParent=1;resizeParentMax=0;resizeLast=0;collapsible=1;marginBottom=0;whiteSpace=wrap;html=1;" vertex="1" parent="WIyWlLk6GJQsqaUBKTNV-1">
          <mxGeometry x="274" y="40" width="280" height="60" as="geometry" />
        </mxCell>
        <mxCell id="d6ZLpvaJAmN4t9_mhqn5-2" value="" style="line;strokeWidth=1;fillColor=none;align=left;verticalAlign=middle;spacingTop=-1;spacingLeft=3;spacingRight=3;rotatable=0;labelPosition=right;points=[];portConstraint=eastwest;strokeColor=inherit;" vertex="1" parent="d6ZLpvaJAmN4t9_mhqn5-0">
          <mxGeometry y="26" width="280" height="8" as="geometry" />
        </mxCell>
        <mxCell id="d6ZLpvaJAmN4t9_mhqn5-3" value="+ main(args: String[]): void" style="text;strokeColor=none;fillColor=none;align=left;verticalAlign=top;spacingLeft=4;spacingRight=4;overflow=hidden;rotatable=0;points=[[0,0.5],[1,0.5]];portConstraint=eastwest;whiteSpace=wrap;html=1;" vertex="1" parent="d6ZLpvaJAmN4t9_mhqn5-0">
          <mxGeometry y="34" width="280" height="26" as="geometry" />
        </mxCell>
        <mxCell id="d6ZLpvaJAmN4t9_mhqn5-24" style="edgeStyle=orthogonalEdgeStyle;rounded=0;orthogonalLoop=1;jettySize=auto;html=1;dashed=1;endArrow=block;endFill=0;" edge="1" parent="WIyWlLk6GJQsqaUBKTNV-1" source="d6ZLpvaJAmN4t9_mhqn5-4" target="d6ZLpvaJAmN4t9_mhqn5-22">
          <mxGeometry relative="1" as="geometry" />
        </mxCell>
        <mxCell id="d6ZLpvaJAmN4t9_mhqn5-25" style="edgeStyle=orthogonalEdgeStyle;rounded=0;orthogonalLoop=1;jettySize=auto;html=1;entryX=0.5;entryY=0;entryDx=0;entryDy=0;dashed=1;endArrow=block;endFill=0;" edge="1" parent="WIyWlLk6GJQsqaUBKTNV-1" source="d6ZLpvaJAmN4t9_mhqn5-4" target="d6ZLpvaJAmN4t9_mhqn5-23">
          <mxGeometry relative="1" as="geometry" />
        </mxCell>
        <mxCell id="d6ZLpvaJAmN4t9_mhqn5-48" value="&lt;span style=&quot;font-size: 12px;&quot;&gt;implements&lt;/span&gt;" style="edgeLabel;html=1;align=center;verticalAlign=middle;resizable=0;points=[];labelBackgroundColor=#FFFFFF;" vertex="1" connectable="0" parent="d6ZLpvaJAmN4t9_mhqn5-25">
          <mxGeometry x="-0.8267" y="-1" relative="1" as="geometry">
            <mxPoint x="-1" as="offset" />
          </mxGeometry>
        </mxCell>
        <mxCell id="d6ZLpvaJAmN4t9_mhqn5-4" value="SensorManager" style="swimlane;fontStyle=1;align=center;verticalAlign=top;childLayout=stackLayout;horizontal=1;startSize=26;horizontalStack=0;resizeParent=1;resizeParentMax=0;resizeLast=0;collapsible=1;marginBottom=0;whiteSpace=wrap;html=1;" vertex="1" parent="WIyWlLk6GJQsqaUBKTNV-1">
          <mxGeometry x="299" y="160" width="230" height="216" as="geometry" />
        </mxCell>
        <mxCell id="d6ZLpvaJAmN4t9_mhqn5-5" value="- instance: SensorManager [static]" style="text;strokeColor=none;fillColor=none;align=left;verticalAlign=top;spacingLeft=4;spacingRight=4;overflow=hidden;rotatable=0;points=[[0,0.5],[1,0.5]];portConstraint=eastwest;whiteSpace=wrap;html=1;" vertex="1" parent="d6ZLpvaJAmN4t9_mhqn5-4">
          <mxGeometry y="26" width="230" height="26" as="geometry" />
        </mxCell>
        <mxCell id="d6ZLpvaJAmN4t9_mhqn5-8" value="- sensores: List&amp;lt;ISensor&amp;gt;" style="text;strokeColor=none;fillColor=none;align=left;verticalAlign=top;spacingLeft=4;spacingRight=4;overflow=hidden;rotatable=0;points=[[0,0.5],[1,0.5]];portConstraint=eastwest;whiteSpace=wrap;html=1;" vertex="1" parent="d6ZLpvaJAmN4t9_mhqn5-4">
          <mxGeometry y="52" width="230" height="26" as="geometry" />
        </mxCell>
        <mxCell id="d6ZLpvaJAmN4t9_mhqn5-9" value="- display: IDisplay" style="text;strokeColor=none;fillColor=none;align=left;verticalAlign=top;spacingLeft=4;spacingRight=4;overflow=hidden;rotatable=0;points=[[0,0.5],[1,0.5]];portConstraint=eastwest;whiteSpace=wrap;html=1;" vertex="1" parent="d6ZLpvaJAmN4t9_mhqn5-4">
          <mxGeometry y="78" width="230" height="26" as="geometry" />
        </mxCell>
        <mxCell id="d6ZLpvaJAmN4t9_mhqn5-6" value="" style="line;strokeWidth=1;fillColor=none;align=left;verticalAlign=middle;spacingTop=-1;spacingLeft=3;spacingRight=3;rotatable=0;labelPosition=right;points=[];portConstraint=eastwest;strokeColor=inherit;" vertex="1" parent="d6ZLpvaJAmN4t9_mhqn5-4">
          <mxGeometry y="104" width="230" height="8" as="geometry" />
        </mxCell>
        <mxCell id="d6ZLpvaJAmN4t9_mhqn5-10" value="+ getInstance(): SensorManager [static]" style="text;strokeColor=none;fillColor=none;align=left;verticalAlign=top;spacingLeft=4;spacingRight=4;overflow=hidden;rotatable=0;points=[[0,0.5],[1,0.5]];portConstraint=eastwest;whiteSpace=wrap;html=1;" vertex="1" parent="d6ZLpvaJAmN4t9_mhqn5-4">
          <mxGeometry y="112" width="230" height="26" as="geometry" />
        </mxCell>
        <mxCell id="d6ZLpvaJAmN4t9_mhqn5-11" value="+ adicionarSensor(sensor: ISensor): void" style="text;strokeColor=none;fillColor=none;align=left;verticalAlign=top;spacingLeft=4;spacingRight=4;overflow=hidden;rotatable=0;points=[[0,0.5],[1,0.5]];portConstraint=eastwest;whiteSpace=wrap;html=1;" vertex="1" parent="d6ZLpvaJAmN4t9_mhqn5-4">
          <mxGeometry y="138" width="230" height="26" as="geometry" />
        </mxCell>
        <mxCell id="d6ZLpvaJAmN4t9_mhqn5-12" value="+ setDisplay(display: IDisplay): void" style="text;strokeColor=none;fillColor=none;align=left;verticalAlign=top;spacingLeft=4;spacingRight=4;overflow=hidden;rotatable=0;points=[[0,0.5],[1,0.5]];portConstraint=eastwest;whiteSpace=wrap;html=1;" vertex="1" parent="d6ZLpvaJAmN4t9_mhqn5-4">
          <mxGeometry y="164" width="230" height="26" as="geometry" />
        </mxCell>
        <mxCell id="d6ZLpvaJAmN4t9_mhqn5-13" value="+ exibirDadosSensores: void" style="text;strokeColor=none;fillColor=none;align=left;verticalAlign=top;spacingLeft=4;spacingRight=4;overflow=hidden;rotatable=0;points=[[0,0.5],[1,0.5]];portConstraint=eastwest;whiteSpace=wrap;html=1;" vertex="1" parent="d6ZLpvaJAmN4t9_mhqn5-4">
          <mxGeometry y="190" width="230" height="26" as="geometry" />
        </mxCell>
        <mxCell id="d6ZLpvaJAmN4t9_mhqn5-26" style="edgeStyle=orthogonalEdgeStyle;rounded=0;orthogonalLoop=1;jettySize=auto;html=1;entryX=0.5;entryY=1;entryDx=0;entryDy=0;dashed=1;endArrow=block;endFill=0;" edge="1" parent="WIyWlLk6GJQsqaUBKTNV-1" source="d6ZLpvaJAmN4t9_mhqn5-14" target="d6ZLpvaJAmN4t9_mhqn5-22">
          <mxGeometry relative="1" as="geometry" />
        </mxCell>
        <mxCell id="d6ZLpvaJAmN4t9_mhqn5-14" value="SensorFactory" style="swimlane;fontStyle=1;align=center;verticalAlign=top;childLayout=stackLayout;horizontal=1;startSize=26;horizontalStack=0;resizeParent=1;resizeParentMax=0;resizeLast=0;collapsible=1;marginBottom=0;whiteSpace=wrap;html=1;" vertex="1" parent="WIyWlLk6GJQsqaUBKTNV-1">
          <mxGeometry x="271" y="720" width="286" height="60" as="geometry" />
        </mxCell>
        <mxCell id="d6ZLpvaJAmN4t9_mhqn5-16" value="" style="line;strokeWidth=1;fillColor=none;align=left;verticalAlign=middle;spacingTop=-1;spacingLeft=3;spacingRight=3;rotatable=0;labelPosition=right;points=[];portConstraint=eastwest;strokeColor=inherit;" vertex="1" parent="d6ZLpvaJAmN4t9_mhqn5-14">
          <mxGeometry y="26" width="286" height="8" as="geometry" />
        </mxCell>
        <mxCell id="d6ZLpvaJAmN4t9_mhqn5-17" value="+ criarSensor(String tipoSensor): ISensor [static]" style="text;strokeColor=none;fillColor=none;align=left;verticalAlign=top;spacingLeft=4;spacingRight=4;overflow=hidden;rotatable=0;points=[[0,0.5],[1,0.5]];portConstraint=eastwest;whiteSpace=wrap;html=1;" vertex="1" parent="d6ZLpvaJAmN4t9_mhqn5-14">
          <mxGeometry y="34" width="286" height="26" as="geometry" />
        </mxCell>
        <mxCell id="d6ZLpvaJAmN4t9_mhqn5-22" value="&lt;p style=&quot;margin:0px;margin-top:4px;text-align:center;&quot;&gt;&lt;i&gt;&amp;lt;&amp;lt;Interface&amp;gt;&amp;gt;&lt;/i&gt;&lt;br&gt;&lt;b&gt;ISensor&lt;/b&gt;&lt;/p&gt;&lt;hr size=&quot;1&quot; style=&quot;border-style:solid;&quot;&gt;&lt;p style=&quot;margin:0px;margin-left:4px;&quot;&gt;&lt;br&gt;&lt;/p&gt;&lt;hr size=&quot;1&quot; style=&quot;border-style:solid;&quot;&gt;&lt;p style=&quot;margin:0px;margin-left:4px;&quot;&gt;+ obterTipo(): String&lt;br&gt;+ lerDados(): String&lt;/p&gt;" style="verticalAlign=top;align=left;overflow=fill;html=1;whiteSpace=wrap;" vertex="1" parent="WIyWlLk6GJQsqaUBKTNV-1">
          <mxGeometry x="170" y="480" width="190" height="120" as="geometry" />
        </mxCell>
        <mxCell id="d6ZLpvaJAmN4t9_mhqn5-23" value="&lt;p style=&quot;margin:0px;margin-top:4px;text-align:center;&quot;&gt;&lt;i&gt;&amp;lt;&amp;lt;Interface&amp;gt;&amp;gt;&lt;/i&gt;&lt;br&gt;&lt;b&gt;IDisplay&lt;/b&gt;&lt;/p&gt;&lt;hr size=&quot;1&quot; style=&quot;border-style:solid;&quot;&gt;&lt;p style=&quot;margin:0px;margin-left:4px;&quot;&gt;&lt;br&gt;&lt;/p&gt;&lt;hr size=&quot;1&quot; style=&quot;border-style:solid;&quot;&gt;&lt;p style=&quot;margin:0px;margin-left:4px;&quot;&gt;+ mostrarDados(&lt;span style=&quot;background-color: transparent; color: light-dark(rgb(0, 0, 0), rgb(255, 255, 255));&quot;&gt;tipo:&amp;nbsp;&lt;/span&gt;&lt;span style=&quot;background-color: transparent; color: light-dark(rgb(0, 0, 0), rgb(255, 255, 255));&quot;&gt;String,&amp;nbsp;&lt;/span&gt;&lt;span style=&quot;background-color: transparent; color: light-dark(rgb(0, 0, 0), rgb(255, 255, 255));&quot;&gt;valor:&amp;nbsp;&lt;/span&gt;&lt;span style=&quot;background-color: transparent; color: light-dark(rgb(0, 0, 0), rgb(255, 255, 255));&quot;&gt;String): void&lt;/span&gt;&lt;/p&gt;" style="verticalAlign=top;align=left;overflow=fill;html=1;whiteSpace=wrap;" vertex="1" parent="WIyWlLk6GJQsqaUBKTNV-1">
          <mxGeometry x="480" y="480" width="260" height="120" as="geometry" />
        </mxCell>
        <mxCell id="d6ZLpvaJAmN4t9_mhqn5-45" style="edgeStyle=orthogonalEdgeStyle;rounded=0;orthogonalLoop=1;jettySize=auto;html=1;endArrow=classic;endFill=1;" edge="1" parent="WIyWlLk6GJQsqaUBKTNV-1" source="d6ZLpvaJAmN4t9_mhqn5-27" target="d6ZLpvaJAmN4t9_mhqn5-38">
          <mxGeometry relative="1" as="geometry" />
        </mxCell>
        <mxCell id="d6ZLpvaJAmN4t9_mhqn5-47" value="Use" style="edgeLabel;html=1;align=center;verticalAlign=middle;resizable=0;points=[];" vertex="1" connectable="0" parent="d6ZLpvaJAmN4t9_mhqn5-45">
          <mxGeometry x="0.0392" y="-1" relative="1" as="geometry">
            <mxPoint as="offset" />
          </mxGeometry>
        </mxCell>
        <mxCell id="d6ZLpvaJAmN4t9_mhqn5-49" style="edgeStyle=orthogonalEdgeStyle;rounded=0;orthogonalLoop=1;jettySize=auto;html=1;entryX=0.25;entryY=1;entryDx=0;entryDy=0;dashed=1;endArrow=block;endFill=0;" edge="1" parent="WIyWlLk6GJQsqaUBKTNV-1" source="d6ZLpvaJAmN4t9_mhqn5-27" target="d6ZLpvaJAmN4t9_mhqn5-22">
          <mxGeometry relative="1" as="geometry" />
        </mxCell>
        <mxCell id="d6ZLpvaJAmN4t9_mhqn5-27" value="UmidadeSensorAdapter" style="swimlane;fontStyle=1;align=center;verticalAlign=top;childLayout=stackLayout;horizontal=1;startSize=26;horizontalStack=0;resizeParent=1;resizeParentMax=0;resizeLast=0;collapsible=1;marginBottom=0;whiteSpace=wrap;html=1;" vertex="1" parent="WIyWlLk6GJQsqaUBKTNV-1">
          <mxGeometry x="70" y="840" width="210" height="138" as="geometry" />
        </mxCell>
        <mxCell id="d6ZLpvaJAmN4t9_mhqn5-28" value="- sensorUmidade: SensorUmidade" style="text;strokeColor=none;fillColor=none;align=left;verticalAlign=top;spacingLeft=4;spacingRight=4;overflow=hidden;rotatable=0;points=[[0,0.5],[1,0.5]];portConstraint=eastwest;whiteSpace=wrap;html=1;" vertex="1" parent="d6ZLpvaJAmN4t9_mhqn5-27">
          <mxGeometry y="26" width="210" height="26" as="geometry" />
        </mxCell>
        <mxCell id="d6ZLpvaJAmN4t9_mhqn5-29" value="" style="line;strokeWidth=1;fillColor=none;align=left;verticalAlign=middle;spacingTop=-1;spacingLeft=3;spacingRight=3;rotatable=0;labelPosition=right;points=[];portConstraint=eastwest;strokeColor=inherit;" vertex="1" parent="d6ZLpvaJAmN4t9_mhqn5-27">
          <mxGeometry y="52" width="210" height="8" as="geometry" />
        </mxCell>
        <mxCell id="d6ZLpvaJAmN4t9_mhqn5-30" value="+ UmidadeSensorAdapter()" style="text;strokeColor=none;fillColor=none;align=left;verticalAlign=top;spacingLeft=4;spacingRight=4;overflow=hidden;rotatable=0;points=[[0,0.5],[1,0.5]];portConstraint=eastwest;whiteSpace=wrap;html=1;" vertex="1" parent="d6ZLpvaJAmN4t9_mhqn5-27">
          <mxGeometry y="60" width="210" height="26" as="geometry" />
        </mxCell>
        <mxCell id="d6ZLpvaJAmN4t9_mhqn5-31" value="+ obterTipo(): String" style="text;strokeColor=none;fillColor=none;align=left;verticalAlign=top;spacingLeft=4;spacingRight=4;overflow=hidden;rotatable=0;points=[[0,0.5],[1,0.5]];portConstraint=eastwest;whiteSpace=wrap;html=1;" vertex="1" parent="d6ZLpvaJAmN4t9_mhqn5-27">
          <mxGeometry y="86" width="210" height="26" as="geometry" />
        </mxCell>
        <mxCell id="d6ZLpvaJAmN4t9_mhqn5-32" value="+ lerDados(): String" style="text;strokeColor=none;fillColor=none;align=left;verticalAlign=top;spacingLeft=4;spacingRight=4;overflow=hidden;rotatable=0;points=[[0,0.5],[1,0.5]];portConstraint=eastwest;whiteSpace=wrap;html=1;" vertex="1" parent="d6ZLpvaJAmN4t9_mhqn5-27">
          <mxGeometry y="112" width="210" height="26" as="geometry" />
        </mxCell>
        <mxCell id="d6ZLpvaJAmN4t9_mhqn5-37" value="implements" style="text;html=1;align=center;verticalAlign=middle;resizable=0;points=[];autosize=1;fillColor=default;" vertex="1" parent="WIyWlLk6GJQsqaUBKTNV-1">
          <mxGeometry x="133" y="730" width="80" height="30" as="geometry" />
        </mxCell>
        <mxCell id="d6ZLpvaJAmN4t9_mhqn5-38" value="SensorUmidade" style="swimlane;fontStyle=1;align=center;verticalAlign=top;childLayout=stackLayout;horizontal=1;startSize=26;horizontalStack=0;resizeParent=1;resizeParentMax=0;resizeLast=0;collapsible=1;marginBottom=0;whiteSpace=wrap;html=1;" vertex="1" parent="WIyWlLk6GJQsqaUBKTNV-1">
          <mxGeometry x="70" y="1080" width="210" height="60" as="geometry" />
        </mxCell>
        <mxCell id="d6ZLpvaJAmN4t9_mhqn5-40" value="" style="line;strokeWidth=1;fillColor=none;align=left;verticalAlign=middle;spacingTop=-1;spacingLeft=3;spacingRight=3;rotatable=0;labelPosition=right;points=[];portConstraint=eastwest;strokeColor=inherit;" vertex="1" parent="d6ZLpvaJAmN4t9_mhqn5-38">
          <mxGeometry y="26" width="210" height="8" as="geometry" />
        </mxCell>
        <mxCell id="d6ZLpvaJAmN4t9_mhqn5-41" value="+ lerUmidade(): double" style="text;strokeColor=none;fillColor=none;align=left;verticalAlign=top;spacingLeft=4;spacingRight=4;overflow=hidden;rotatable=0;points=[[0,0.5],[1,0.5]];portConstraint=eastwest;whiteSpace=wrap;html=1;" vertex="1" parent="d6ZLpvaJAmN4t9_mhqn5-38">
          <mxGeometry y="34" width="210" height="26" as="geometry" />
        </mxCell>
        <mxCell id="d6ZLpvaJAmN4t9_mhqn5-50" value="implements" style="text;html=1;align=center;verticalAlign=middle;resizable=0;points=[];autosize=1;fillColor=default;" vertex="1" parent="WIyWlLk6GJQsqaUBKTNV-1">
          <mxGeometry x="300" y="645" width="80" height="30" as="geometry" />
        </mxCell>
        <mxCell id="d6ZLpvaJAmN4t9_mhqn5-58" style="edgeStyle=orthogonalEdgeStyle;rounded=0;orthogonalLoop=1;jettySize=auto;html=1;entryX=0;entryY=0.25;entryDx=0;entryDy=0;exitX=0.5;exitY=0;exitDx=0;exitDy=0;dashed=1;endArrow=block;endFill=0;" edge="1" parent="WIyWlLk6GJQsqaUBKTNV-1" source="d6ZLpvaJAmN4t9_mhqn5-52" target="d6ZLpvaJAmN4t9_mhqn5-22">
          <mxGeometry relative="1" as="geometry" />
        </mxCell>
        <mxCell id="d6ZLpvaJAmN4t9_mhqn5-80" value="implements" style="edgeLabel;html=1;align=center;verticalAlign=middle;resizable=0;points=[];" vertex="1" connectable="0" parent="d6ZLpvaJAmN4t9_mhqn5-58">
          <mxGeometry x="-0.4935" relative="1" as="geometry">
            <mxPoint as="offset" />
          </mxGeometry>
        </mxCell>
        <mxCell id="d6ZLpvaJAmN4t9_mhqn5-66" style="edgeStyle=orthogonalEdgeStyle;rounded=0;orthogonalLoop=1;jettySize=auto;html=1;entryX=0.5;entryY=0;entryDx=0;entryDy=0;" edge="1" parent="WIyWlLk6GJQsqaUBKTNV-1" source="d6ZLpvaJAmN4t9_mhqn5-52" target="d6ZLpvaJAmN4t9_mhqn5-60">
          <mxGeometry relative="1" as="geometry" />
        </mxCell>
        <mxCell id="d6ZLpvaJAmN4t9_mhqn5-67" value="Use" style="edgeLabel;html=1;align=center;verticalAlign=middle;resizable=0;points=[];" vertex="1" connectable="0" parent="d6ZLpvaJAmN4t9_mhqn5-66">
          <mxGeometry x="-0.0784" relative="1" as="geometry">
            <mxPoint as="offset" />
          </mxGeometry>
        </mxCell>
        <mxCell id="d6ZLpvaJAmN4t9_mhqn5-52" value="TemperaturaSensorAdapter" style="swimlane;fontStyle=1;align=center;verticalAlign=top;childLayout=stackLayout;horizontal=1;startSize=26;horizontalStack=0;resizeParent=1;resizeParentMax=0;resizeLast=0;collapsible=1;marginBottom=0;whiteSpace=wrap;html=1;" vertex="1" parent="WIyWlLk6GJQsqaUBKTNV-1">
          <mxGeometry x="-240" y="840" width="240" height="138" as="geometry" />
        </mxCell>
        <mxCell id="d6ZLpvaJAmN4t9_mhqn5-53" value="- sensorTemperatura: SensorTemperatura" style="text;strokeColor=none;fillColor=none;align=left;verticalAlign=top;spacingLeft=4;spacingRight=4;overflow=hidden;rotatable=0;points=[[0,0.5],[1,0.5]];portConstraint=eastwest;whiteSpace=wrap;html=1;" vertex="1" parent="d6ZLpvaJAmN4t9_mhqn5-52">
          <mxGeometry y="26" width="240" height="26" as="geometry" />
        </mxCell>
        <mxCell id="d6ZLpvaJAmN4t9_mhqn5-54" value="" style="line;strokeWidth=1;fillColor=none;align=left;verticalAlign=middle;spacingTop=-1;spacingLeft=3;spacingRight=3;rotatable=0;labelPosition=right;points=[];portConstraint=eastwest;strokeColor=inherit;" vertex="1" parent="d6ZLpvaJAmN4t9_mhqn5-52">
          <mxGeometry y="52" width="240" height="8" as="geometry" />
        </mxCell>
        <mxCell id="d6ZLpvaJAmN4t9_mhqn5-55" value="+ TemperaturaSensorAdapter()" style="text;strokeColor=none;fillColor=none;align=left;verticalAlign=top;spacingLeft=4;spacingRight=4;overflow=hidden;rotatable=0;points=[[0,0.5],[1,0.5]];portConstraint=eastwest;whiteSpace=wrap;html=1;" vertex="1" parent="d6ZLpvaJAmN4t9_mhqn5-52">
          <mxGeometry y="60" width="240" height="26" as="geometry" />
        </mxCell>
        <mxCell id="d6ZLpvaJAmN4t9_mhqn5-56" value="+ obterTipo(): String" style="text;strokeColor=none;fillColor=none;align=left;verticalAlign=top;spacingLeft=4;spacingRight=4;overflow=hidden;rotatable=0;points=[[0,0.5],[1,0.5]];portConstraint=eastwest;whiteSpace=wrap;html=1;" vertex="1" parent="d6ZLpvaJAmN4t9_mhqn5-52">
          <mxGeometry y="86" width="240" height="26" as="geometry" />
        </mxCell>
        <mxCell id="d6ZLpvaJAmN4t9_mhqn5-57" value="+ lerDados(): String" style="text;strokeColor=none;fillColor=none;align=left;verticalAlign=top;spacingLeft=4;spacingRight=4;overflow=hidden;rotatable=0;points=[[0,0.5],[1,0.5]];portConstraint=eastwest;whiteSpace=wrap;html=1;" vertex="1" parent="d6ZLpvaJAmN4t9_mhqn5-52">
          <mxGeometry y="112" width="240" height="26" as="geometry" />
        </mxCell>
        <mxCell id="d6ZLpvaJAmN4t9_mhqn5-60" value="SensorTemperatura" style="swimlane;fontStyle=1;align=center;verticalAlign=top;childLayout=stackLayout;horizontal=1;startSize=26;horizontalStack=0;resizeParent=1;resizeParentMax=0;resizeLast=0;collapsible=1;marginBottom=0;whiteSpace=wrap;html=1;" vertex="1" parent="WIyWlLk6GJQsqaUBKTNV-1">
          <mxGeometry x="-240" y="1080" width="240" height="60" as="geometry" />
        </mxCell>
        <mxCell id="d6ZLpvaJAmN4t9_mhqn5-62" value="" style="line;strokeWidth=1;fillColor=none;align=left;verticalAlign=middle;spacingTop=-1;spacingLeft=3;spacingRight=3;rotatable=0;labelPosition=right;points=[];portConstraint=eastwest;strokeColor=inherit;" vertex="1" parent="d6ZLpvaJAmN4t9_mhqn5-60">
          <mxGeometry y="26" width="240" height="8" as="geometry" />
        </mxCell>
        <mxCell id="d6ZLpvaJAmN4t9_mhqn5-63" value="+ lerTemperatura(): double" style="text;strokeColor=none;fillColor=none;align=left;verticalAlign=top;spacingLeft=4;spacingRight=4;overflow=hidden;rotatable=0;points=[[0,0.5],[1,0.5]];portConstraint=eastwest;whiteSpace=wrap;html=1;" vertex="1" parent="d6ZLpvaJAmN4t9_mhqn5-60">
          <mxGeometry y="34" width="240" height="26" as="geometry" />
        </mxCell>
        <mxCell id="d6ZLpvaJAmN4t9_mhqn5-83" style="edgeStyle=orthogonalEdgeStyle;rounded=0;orthogonalLoop=1;jettySize=auto;html=1;" edge="1" parent="WIyWlLk6GJQsqaUBKTNV-1" source="d6ZLpvaJAmN4t9_mhqn5-68" target="d6ZLpvaJAmN4t9_mhqn5-74">
          <mxGeometry relative="1" as="geometry" />
        </mxCell>
        <mxCell id="d6ZLpvaJAmN4t9_mhqn5-84" value="Use" style="edgeLabel;html=1;align=center;verticalAlign=middle;resizable=0;points=[];" vertex="1" connectable="0" parent="d6ZLpvaJAmN4t9_mhqn5-83">
          <mxGeometry x="-0.025" relative="1" as="geometry">
            <mxPoint as="offset" />
          </mxGeometry>
        </mxCell>
        <mxCell id="d6ZLpvaJAmN4t9_mhqn5-68" value="LuminosidadeSensorAdapter" style="swimlane;fontStyle=1;align=center;verticalAlign=top;childLayout=stackLayout;horizontal=1;startSize=26;horizontalStack=0;resizeParent=1;resizeParentMax=0;resizeLast=0;collapsible=1;marginBottom=0;whiteSpace=wrap;html=1;" vertex="1" parent="WIyWlLk6GJQsqaUBKTNV-1">
          <mxGeometry x="-120" y="280" width="260" height="138" as="geometry" />
        </mxCell>
        <mxCell id="d6ZLpvaJAmN4t9_mhqn5-69" value="- sensorLuminosidade: SensorLuminosidade" style="text;strokeColor=none;fillColor=none;align=left;verticalAlign=top;spacingLeft=4;spacingRight=4;overflow=hidden;rotatable=0;points=[[0,0.5],[1,0.5]];portConstraint=eastwest;whiteSpace=wrap;html=1;" vertex="1" parent="d6ZLpvaJAmN4t9_mhqn5-68">
          <mxGeometry y="26" width="260" height="26" as="geometry" />
        </mxCell>
        <mxCell id="d6ZLpvaJAmN4t9_mhqn5-70" value="" style="line;strokeWidth=1;fillColor=none;align=left;verticalAlign=middle;spacingTop=-1;spacingLeft=3;spacingRight=3;rotatable=0;labelPosition=right;points=[];portConstraint=eastwest;strokeColor=inherit;" vertex="1" parent="d6ZLpvaJAmN4t9_mhqn5-68">
          <mxGeometry y="52" width="260" height="8" as="geometry" />
        </mxCell>
        <mxCell id="d6ZLpvaJAmN4t9_mhqn5-71" value="+ LuminosidadeSensorAdapter()" style="text;strokeColor=none;fillColor=none;align=left;verticalAlign=top;spacingLeft=4;spacingRight=4;overflow=hidden;rotatable=0;points=[[0,0.5],[1,0.5]];portConstraint=eastwest;whiteSpace=wrap;html=1;" vertex="1" parent="d6ZLpvaJAmN4t9_mhqn5-68">
          <mxGeometry y="60" width="260" height="26" as="geometry" />
        </mxCell>
        <mxCell id="d6ZLpvaJAmN4t9_mhqn5-72" value="+ obterTipo(): String" style="text;strokeColor=none;fillColor=none;align=left;verticalAlign=top;spacingLeft=4;spacingRight=4;overflow=hidden;rotatable=0;points=[[0,0.5],[1,0.5]];portConstraint=eastwest;whiteSpace=wrap;html=1;" vertex="1" parent="d6ZLpvaJAmN4t9_mhqn5-68">
          <mxGeometry y="86" width="260" height="26" as="geometry" />
        </mxCell>
        <mxCell id="d6ZLpvaJAmN4t9_mhqn5-73" value="+ lerDados(): String" style="text;strokeColor=none;fillColor=none;align=left;verticalAlign=top;spacingLeft=4;spacingRight=4;overflow=hidden;rotatable=0;points=[[0,0.5],[1,0.5]];portConstraint=eastwest;whiteSpace=wrap;html=1;" vertex="1" parent="d6ZLpvaJAmN4t9_mhqn5-68">
          <mxGeometry y="112" width="260" height="26" as="geometry" />
        </mxCell>
        <mxCell id="d6ZLpvaJAmN4t9_mhqn5-74" value="SensorLuminosidade" style="swimlane;fontStyle=1;align=center;verticalAlign=top;childLayout=stackLayout;horizontal=1;startSize=26;horizontalStack=0;resizeParent=1;resizeParentMax=0;resizeLast=0;collapsible=1;marginBottom=0;whiteSpace=wrap;html=1;" vertex="1" parent="WIyWlLk6GJQsqaUBKTNV-1">
          <mxGeometry x="-120" y="140" width="260" height="60" as="geometry" />
        </mxCell>
        <mxCell id="d6ZLpvaJAmN4t9_mhqn5-75" value="" style="line;strokeWidth=1;fillColor=none;align=left;verticalAlign=middle;spacingTop=-1;spacingLeft=3;spacingRight=3;rotatable=0;labelPosition=right;points=[];portConstraint=eastwest;strokeColor=inherit;" vertex="1" parent="d6ZLpvaJAmN4t9_mhqn5-74">
          <mxGeometry y="26" width="260" height="8" as="geometry" />
        </mxCell>
        <mxCell id="d6ZLpvaJAmN4t9_mhqn5-76" value="+ lerLuminosidade(): int" style="text;strokeColor=none;fillColor=none;align=left;verticalAlign=top;spacingLeft=4;spacingRight=4;overflow=hidden;rotatable=0;points=[[0,0.5],[1,0.5]];portConstraint=eastwest;whiteSpace=wrap;html=1;" vertex="1" parent="d6ZLpvaJAmN4t9_mhqn5-74">
          <mxGeometry y="34" width="260" height="26" as="geometry" />
        </mxCell>
        <mxCell id="d6ZLpvaJAmN4t9_mhqn5-77" style="edgeStyle=orthogonalEdgeStyle;rounded=0;orthogonalLoop=1;jettySize=auto;html=1;entryX=0.005;entryY=0.125;entryDx=0;entryDy=0;entryPerimeter=0;exitX=0.485;exitY=1.038;exitDx=0;exitDy=0;exitPerimeter=0;dashed=1;endArrow=block;endFill=0;" edge="1" parent="WIyWlLk6GJQsqaUBKTNV-1" source="d6ZLpvaJAmN4t9_mhqn5-73" target="d6ZLpvaJAmN4t9_mhqn5-22">
          <mxGeometry relative="1" as="geometry" />
        </mxCell>
        <mxCell id="d6ZLpvaJAmN4t9_mhqn5-79" value="implements" style="edgeLabel;html=1;align=center;verticalAlign=middle;resizable=0;points=[];" vertex="1" connectable="0" parent="d6ZLpvaJAmN4t9_mhqn5-77">
          <mxGeometry x="-0.6013" y="1" relative="1" as="geometry">
            <mxPoint as="offset" />
          </mxGeometry>
        </mxCell>
        <mxCell id="d6ZLpvaJAmN4t9_mhqn5-88" style="edgeStyle=orthogonalEdgeStyle;rounded=0;orthogonalLoop=1;jettySize=auto;html=1;entryX=0.5;entryY=1;entryDx=0;entryDy=0;dashed=1;endArrow=block;endFill=0;" edge="1" parent="WIyWlLk6GJQsqaUBKTNV-1" source="d6ZLpvaJAmN4t9_mhqn5-85" target="d6ZLpvaJAmN4t9_mhqn5-23">
          <mxGeometry relative="1" as="geometry" />
        </mxCell>
        <mxCell id="d6ZLpvaJAmN4t9_mhqn5-89" value="implements" style="edgeLabel;html=1;align=center;verticalAlign=middle;resizable=0;points=[];" vertex="1" connectable="0" parent="d6ZLpvaJAmN4t9_mhqn5-88">
          <mxGeometry x="0.2083" relative="1" as="geometry">
            <mxPoint as="offset" />
          </mxGeometry>
        </mxCell>
        <mxCell id="d6ZLpvaJAmN4t9_mhqn5-85" value="DisplayConsole" style="swimlane;fontStyle=1;align=center;verticalAlign=top;childLayout=stackLayout;horizontal=1;startSize=26;horizontalStack=0;resizeParent=1;resizeParentMax=0;resizeLast=0;collapsible=1;marginBottom=0;whiteSpace=wrap;html=1;" vertex="1" parent="WIyWlLk6GJQsqaUBKTNV-1">
          <mxGeometry x="470" y="840" width="280" height="60" as="geometry" />
        </mxCell>
        <mxCell id="d6ZLpvaJAmN4t9_mhqn5-86" value="" style="line;strokeWidth=1;fillColor=none;align=left;verticalAlign=middle;spacingTop=-1;spacingLeft=3;spacingRight=3;rotatable=0;labelPosition=right;points=[];portConstraint=eastwest;strokeColor=inherit;" vertex="1" parent="d6ZLpvaJAmN4t9_mhqn5-85">
          <mxGeometry y="26" width="280" height="8" as="geometry" />
        </mxCell>
        <mxCell id="d6ZLpvaJAmN4t9_mhqn5-87" value="+ mostrarDados(tipo: String, valor: String): void" style="text;strokeColor=none;fillColor=none;align=left;verticalAlign=top;spacingLeft=4;spacingRight=4;overflow=hidden;rotatable=0;points=[[0,0.5],[1,0.5]];portConstraint=eastwest;whiteSpace=wrap;html=1;" vertex="1" parent="d6ZLpvaJAmN4t9_mhqn5-85">
          <mxGeometry y="34" width="280" height="26" as="geometry" />
        </mxCell>
        <mxCell id="d6ZLpvaJAmN4t9_mhqn5-96" style="edgeStyle=orthogonalEdgeStyle;rounded=0;orthogonalLoop=1;jettySize=auto;html=1;entryX=0.75;entryY=0;entryDx=0;entryDy=0;exitX=0.007;exitY=0.179;exitDx=0;exitDy=0;exitPerimeter=0;dashed=1;endArrow=block;endFill=0;" edge="1" parent="WIyWlLk6GJQsqaUBKTNV-1" source="d6ZLpvaJAmN4t9_mhqn5-90" target="d6ZLpvaJAmN4t9_mhqn5-23">
          <mxGeometry relative="1" as="geometry" />
        </mxCell>
        <mxCell id="d6ZLpvaJAmN4t9_mhqn5-97" value="implements" style="edgeLabel;html=1;align=center;verticalAlign=middle;resizable=0;points=[];" vertex="1" connectable="0" parent="d6ZLpvaJAmN4t9_mhqn5-96">
          <mxGeometry x="-0.308" relative="1" as="geometry">
            <mxPoint x="3" y="-2" as="offset" />
          </mxGeometry>
        </mxCell>
        <mxCell id="d6ZLpvaJAmN4t9_mhqn5-90" value="&lt;div&gt;&lt;i style=&quot;&quot;&gt;&lt;span style=&quot;font-weight: 400;&quot;&gt;&amp;lt;&amp;lt;abstract&amp;gt;&amp;gt;&lt;/span&gt;&lt;/i&gt;&lt;/div&gt;SensorDisplayDecorator" style="swimlane;fontStyle=1;align=center;verticalAlign=top;childLayout=stackLayout;horizontal=1;startSize=42;horizontalStack=0;resizeParent=1;resizeParentMax=0;resizeLast=0;collapsible=1;marginBottom=0;whiteSpace=wrap;html=1;" vertex="1" parent="WIyWlLk6GJQsqaUBKTNV-1">
          <mxGeometry x="840" y="368" width="300" height="128" as="geometry" />
        </mxCell>
        <mxCell id="d6ZLpvaJAmN4t9_mhqn5-91" value="# wrappedDisplay: IDisplay" style="text;strokeColor=none;fillColor=none;align=left;verticalAlign=top;spacingLeft=4;spacingRight=4;overflow=hidden;rotatable=0;points=[[0,0.5],[1,0.5]];portConstraint=eastwest;whiteSpace=wrap;html=1;" vertex="1" parent="d6ZLpvaJAmN4t9_mhqn5-90">
          <mxGeometry y="42" width="300" height="26" as="geometry" />
        </mxCell>
        <mxCell id="d6ZLpvaJAmN4t9_mhqn5-92" value="" style="line;strokeWidth=1;fillColor=none;align=left;verticalAlign=middle;spacingTop=-1;spacingLeft=3;spacingRight=3;rotatable=0;labelPosition=right;points=[];portConstraint=eastwest;strokeColor=inherit;" vertex="1" parent="d6ZLpvaJAmN4t9_mhqn5-90">
          <mxGeometry y="68" width="300" height="8" as="geometry" />
        </mxCell>
        <mxCell id="d6ZLpvaJAmN4t9_mhqn5-93" value="+ SensorDisplayDecorator(wrappedDisplay: IDisplay)" style="text;strokeColor=none;fillColor=none;align=left;verticalAlign=top;spacingLeft=4;spacingRight=4;overflow=hidden;rotatable=0;points=[[0,0.5],[1,0.5]];portConstraint=eastwest;whiteSpace=wrap;html=1;" vertex="1" parent="d6ZLpvaJAmN4t9_mhqn5-90">
          <mxGeometry y="76" width="300" height="26" as="geometry" />
        </mxCell>
        <mxCell id="d6ZLpvaJAmN4t9_mhqn5-94" value="+ mostrarDados(tipo: String, valor: String): void" style="text;strokeColor=none;fillColor=none;align=left;verticalAlign=top;spacingLeft=4;spacingRight=4;overflow=hidden;rotatable=0;points=[[0,0.5],[1,0.5]];portConstraint=eastwest;whiteSpace=wrap;html=1;" vertex="1" parent="d6ZLpvaJAmN4t9_mhqn5-90">
          <mxGeometry y="102" width="300" height="26" as="geometry" />
        </mxCell>
        <mxCell id="d6ZLpvaJAmN4t9_mhqn5-103" style="edgeStyle=orthogonalEdgeStyle;rounded=0;orthogonalLoop=1;jettySize=auto;html=1;endArrow=block;endFill=0;" edge="1" parent="WIyWlLk6GJQsqaUBKTNV-1" source="d6ZLpvaJAmN4t9_mhqn5-98" target="d6ZLpvaJAmN4t9_mhqn5-90">
          <mxGeometry relative="1" as="geometry" />
        </mxCell>
        <mxCell id="d6ZLpvaJAmN4t9_mhqn5-104" value="Extends" style="edgeLabel;html=1;align=center;verticalAlign=middle;resizable=0;points=[];" vertex="1" connectable="0" parent="d6ZLpvaJAmN4t9_mhqn5-103">
          <mxGeometry x="0.0227" y="1" relative="1" as="geometry">
            <mxPoint as="offset" />
          </mxGeometry>
        </mxCell>
        <mxCell id="d6ZLpvaJAmN4t9_mhqn5-112" style="edgeStyle=orthogonalEdgeStyle;rounded=0;orthogonalLoop=1;jettySize=auto;html=1;" edge="1" parent="WIyWlLk6GJQsqaUBKTNV-1" source="d6ZLpvaJAmN4t9_mhqn5-98" target="d6ZLpvaJAmN4t9_mhqn5-105">
          <mxGeometry relative="1" as="geometry" />
        </mxCell>
        <mxCell id="d6ZLpvaJAmN4t9_mhqn5-113" value="Use" style="edgeLabel;html=1;align=center;verticalAlign=middle;resizable=0;points=[];" vertex="1" connectable="0" parent="d6ZLpvaJAmN4t9_mhqn5-112">
          <mxGeometry x="-0.1429" relative="1" as="geometry">
            <mxPoint y="-5" as="offset" />
          </mxGeometry>
        </mxCell>
        <mxCell id="d6ZLpvaJAmN4t9_mhqn5-98" value="LogDisplayDecorator" style="swimlane;fontStyle=1;align=center;verticalAlign=top;childLayout=stackLayout;horizontal=1;startSize=26;horizontalStack=0;resizeParent=1;resizeParentMax=0;resizeLast=0;collapsible=1;marginBottom=0;whiteSpace=wrap;html=1;" vertex="1" parent="WIyWlLk6GJQsqaUBKTNV-1">
          <mxGeometry x="840" y="160" width="300" height="86" as="geometry" />
        </mxCell>
        <mxCell id="d6ZLpvaJAmN4t9_mhqn5-100" value="" style="line;strokeWidth=1;fillColor=none;align=left;verticalAlign=middle;spacingTop=-1;spacingLeft=3;spacingRight=3;rotatable=0;labelPosition=right;points=[];portConstraint=eastwest;strokeColor=inherit;" vertex="1" parent="d6ZLpvaJAmN4t9_mhqn5-98">
          <mxGeometry y="26" width="300" height="8" as="geometry" />
        </mxCell>
        <mxCell id="d6ZLpvaJAmN4t9_mhqn5-101" value="+ LogDisplayDecorator(wrappedDisplay: IDisplay)" style="text;strokeColor=none;fillColor=none;align=left;verticalAlign=top;spacingLeft=4;spacingRight=4;overflow=hidden;rotatable=0;points=[[0,0.5],[1,0.5]];portConstraint=eastwest;whiteSpace=wrap;html=1;" vertex="1" parent="d6ZLpvaJAmN4t9_mhqn5-98">
          <mxGeometry y="34" width="300" height="26" as="geometry" />
        </mxCell>
        <mxCell id="d6ZLpvaJAmN4t9_mhqn5-102" value="+ mostrarDados(tipo: String, valor: String): void" style="text;strokeColor=none;fillColor=none;align=left;verticalAlign=top;spacingLeft=4;spacingRight=4;overflow=hidden;rotatable=0;points=[[0,0.5],[1,0.5]];portConstraint=eastwest;whiteSpace=wrap;html=1;" vertex="1" parent="d6ZLpvaJAmN4t9_mhqn5-98">
          <mxGeometry y="60" width="300" height="26" as="geometry" />
        </mxCell>
        <mxCell id="d6ZLpvaJAmN4t9_mhqn5-105" value="Logger" style="swimlane;fontStyle=1;align=center;verticalAlign=top;childLayout=stackLayout;horizontal=1;startSize=26;horizontalStack=0;resizeParent=1;resizeParentMax=0;resizeLast=0;collapsible=1;marginBottom=0;whiteSpace=wrap;html=1;" vertex="1" parent="WIyWlLk6GJQsqaUBKTNV-1">
          <mxGeometry x="885" y="30" width="210" height="60" as="geometry" />
        </mxCell>
        <mxCell id="d6ZLpvaJAmN4t9_mhqn5-106" value="" style="line;strokeWidth=1;fillColor=none;align=left;verticalAlign=middle;spacingTop=-1;spacingLeft=3;spacingRight=3;rotatable=0;labelPosition=right;points=[];portConstraint=eastwest;strokeColor=inherit;" vertex="1" parent="d6ZLpvaJAmN4t9_mhqn5-105">
          <mxGeometry y="26" width="210" height="8" as="geometry" />
        </mxCell>
        <mxCell id="d6ZLpvaJAmN4t9_mhqn5-107" value="+ log(message: String): void [static]" style="text;strokeColor=none;fillColor=none;align=left;verticalAlign=top;spacingLeft=4;spacingRight=4;overflow=hidden;rotatable=0;points=[[0,0.5],[1,0.5]];portConstraint=eastwest;whiteSpace=wrap;html=1;" vertex="1" parent="d6ZLpvaJAmN4t9_mhqn5-105">
          <mxGeometry y="34" width="210" height="26" as="geometry" />
        </mxCell>
        <mxCell id="d6ZLpvaJAmN4t9_mhqn5-119" style="edgeStyle=orthogonalEdgeStyle;rounded=0;orthogonalLoop=1;jettySize=auto;html=1;endArrow=block;endFill=0;" edge="1" parent="WIyWlLk6GJQsqaUBKTNV-1" source="d6ZLpvaJAmN4t9_mhqn5-114" target="d6ZLpvaJAmN4t9_mhqn5-90">
          <mxGeometry relative="1" as="geometry" />
        </mxCell>
        <mxCell id="d6ZLpvaJAmN4t9_mhqn5-120" value="Extends" style="edgeLabel;html=1;align=center;verticalAlign=middle;resizable=0;points=[];" vertex="1" connectable="0" parent="d6ZLpvaJAmN4t9_mhqn5-119">
          <mxGeometry relative="1" as="geometry">
            <mxPoint as="offset" />
          </mxGeometry>
        </mxCell>
        <mxCell id="d6ZLpvaJAmN4t9_mhqn5-114" value="LimiteAlertaDisplayDecorator" style="swimlane;fontStyle=1;align=center;verticalAlign=top;childLayout=stackLayout;horizontal=1;startSize=26;horizontalStack=0;resizeParent=1;resizeParentMax=0;resizeLast=0;collapsible=1;marginBottom=0;whiteSpace=wrap;html=1;" vertex="1" parent="WIyWlLk6GJQsqaUBKTNV-1">
          <mxGeometry x="755" y="600" width="470" height="112" as="geometry" />
        </mxCell>
        <mxCell id="d6ZLpvaJAmN4t9_mhqn5-115" value="- limiteTemperatura: double [final]" style="text;strokeColor=none;fillColor=none;align=left;verticalAlign=top;spacingLeft=4;spacingRight=4;overflow=hidden;rotatable=0;points=[[0,0.5],[1,0.5]];portConstraint=eastwest;whiteSpace=wrap;html=1;" vertex="1" parent="d6ZLpvaJAmN4t9_mhqn5-114">
          <mxGeometry y="26" width="470" height="26" as="geometry" />
        </mxCell>
        <mxCell id="d6ZLpvaJAmN4t9_mhqn5-116" value="" style="line;strokeWidth=1;fillColor=none;align=left;verticalAlign=middle;spacingTop=-1;spacingLeft=3;spacingRight=3;rotatable=0;labelPosition=right;points=[];portConstraint=eastwest;strokeColor=inherit;" vertex="1" parent="d6ZLpvaJAmN4t9_mhqn5-114">
          <mxGeometry y="52" width="470" height="8" as="geometry" />
        </mxCell>
        <mxCell id="d6ZLpvaJAmN4t9_mhqn5-117" value="+ LimiteAlertaDisplayDecorator(wrappedDisplay: IDisplay,&amp;nbsp;limiteTemperatura: double)" style="text;strokeColor=none;fillColor=none;align=left;verticalAlign=top;spacingLeft=4;spacingRight=4;overflow=hidden;rotatable=0;points=[[0,0.5],[1,0.5]];portConstraint=eastwest;whiteSpace=wrap;html=1;" vertex="1" parent="d6ZLpvaJAmN4t9_mhqn5-114">
          <mxGeometry y="60" width="470" height="26" as="geometry" />
        </mxCell>
        <mxCell id="d6ZLpvaJAmN4t9_mhqn5-118" value="+ mostrarDados(tipo: String, valor: String): void" style="text;strokeColor=none;fillColor=none;align=left;verticalAlign=top;spacingLeft=4;spacingRight=4;overflow=hidden;rotatable=0;points=[[0,0.5],[1,0.5]];portConstraint=eastwest;whiteSpace=wrap;html=1;" vertex="1" parent="d6ZLpvaJAmN4t9_mhqn5-114">
          <mxGeometry y="86" width="470" height="26" as="geometry" />
        </mxCell>
        <mxCell id="d6ZLpvaJAmN4t9_mhqn5-126" style="edgeStyle=orthogonalEdgeStyle;rounded=0;orthogonalLoop=1;jettySize=auto;html=1;entryX=0.75;entryY=0;entryDx=0;entryDy=0;exitX=0.5;exitY=0;exitDx=0;exitDy=0;endArrow=block;endFill=0;" edge="1" parent="WIyWlLk6GJQsqaUBKTNV-1" source="d6ZLpvaJAmN4t9_mhqn5-121" target="d6ZLpvaJAmN4t9_mhqn5-90">
          <mxGeometry relative="1" as="geometry" />
        </mxCell>
        <mxCell id="d6ZLpvaJAmN4t9_mhqn5-127" value="Extends" style="edgeLabel;html=1;align=center;verticalAlign=middle;resizable=0;points=[];" vertex="1" connectable="0" parent="d6ZLpvaJAmN4t9_mhqn5-126">
          <mxGeometry x="0.1325" relative="1" as="geometry">
            <mxPoint x="34" y="-1" as="offset" />
          </mxGeometry>
        </mxCell>
        <mxCell id="d6ZLpvaJAmN4t9_mhqn5-121" value="FormatacaoDisplayDecorator" style="swimlane;fontStyle=1;align=center;verticalAlign=top;childLayout=stackLayout;horizontal=1;startSize=26;horizontalStack=0;resizeParent=1;resizeParentMax=0;resizeLast=0;collapsible=1;marginBottom=0;whiteSpace=wrap;html=1;" vertex="1" parent="WIyWlLk6GJQsqaUBKTNV-1">
          <mxGeometry x="1280" y="368" width="320" height="112" as="geometry" />
        </mxCell>
        <mxCell id="d6ZLpvaJAmN4t9_mhqn5-122" value="- limiteTemperatura: double [final]" style="text;strokeColor=none;fillColor=none;align=left;verticalAlign=top;spacingLeft=4;spacingRight=4;overflow=hidden;rotatable=0;points=[[0,0.5],[1,0.5]];portConstraint=eastwest;whiteSpace=wrap;html=1;" vertex="1" parent="d6ZLpvaJAmN4t9_mhqn5-121">
          <mxGeometry y="26" width="320" height="26" as="geometry" />
        </mxCell>
        <mxCell id="d6ZLpvaJAmN4t9_mhqn5-123" value="" style="line;strokeWidth=1;fillColor=none;align=left;verticalAlign=middle;spacingTop=-1;spacingLeft=3;spacingRight=3;rotatable=0;labelPosition=right;points=[];portConstraint=eastwest;strokeColor=inherit;" vertex="1" parent="d6ZLpvaJAmN4t9_mhqn5-121">
          <mxGeometry y="52" width="320" height="8" as="geometry" />
        </mxCell>
        <mxCell id="d6ZLpvaJAmN4t9_mhqn5-124" value="+ FormatacaoDisplayDecorator(wrappedDisplay: IDisplay)" style="text;strokeColor=none;fillColor=none;align=left;verticalAlign=top;spacingLeft=4;spacingRight=4;overflow=hidden;rotatable=0;points=[[0,0.5],[1,0.5]];portConstraint=eastwest;whiteSpace=wrap;html=1;" vertex="1" parent="d6ZLpvaJAmN4t9_mhqn5-121">
          <mxGeometry y="60" width="320" height="26" as="geometry" />
        </mxCell>
        <mxCell id="d6ZLpvaJAmN4t9_mhqn5-125" value="+ mostrarDados(tipo: String, valor: String): void" style="text;strokeColor=none;fillColor=none;align=left;verticalAlign=top;spacingLeft=4;spacingRight=4;overflow=hidden;rotatable=0;points=[[0,0.5],[1,0.5]];portConstraint=eastwest;whiteSpace=wrap;html=1;" vertex="1" parent="d6ZLpvaJAmN4t9_mhqn5-121">
          <mxGeometry y="86" width="320" height="26" as="geometry" />
        </mxCell>
      </root>
    </mxGraphModel>
  </diagram>
</mxfile>
